<?xml version="1.0" standalone="no"?>
<!DOCTYPE svg PUBLIC "-//W3C//DTD SVG 20010904//EN"
 "http://www.w3.org/TR/2001/REC-SVG-20010904/DTD/svg10.dtd">
<svg version="1.0" xmlns="http://www.w3.org/2000/svg"
 width="162.000000pt" height="162.000000pt" viewBox="0 0 162.000000 162.000000"
 preserveAspectRatio="xMidYMid meet">
<metadata>
Created by potrace 1.14, written by Peter Selinger 2001-2017
</metadata>
<g transform="translate(0.000000,162.000000) scale(0.100000,-0.100000)"
fill="#000000" stroke="none">
<path d="M640 1601 c-297 -63 -533 -290 -616 -591 -25 -91 -25 -309 0 -400 80
-289 297 -506 586 -586 91 -25 309 -25 400 0 289 80 506 297 586 586 25 91 25
309 0 400 -117 425 -530 680 -956 591z m405 -35 c130 -42 219 -98 321 -200
102 -102 157 -190 201 -321 25 -73 27 -93 27 -235 0 -142 -2 -162 -27 -235
-85 -253 -269 -437 -522 -522 -73 -25 -93 -27 -235 -27 -142 0 -162 2 -235 27
-251 85 -437 271 -522 522 -25 73 -27 93 -27 235 0 142 2 162 27 235 44 131
99 219 201 321 119 119 234 184 391 220 99 23 301 13 400 -20z"/>
<path d="M341 1116 c-34 -19 -50 -54 -51 -108 0 -38 6 -54 30 -81 16 -19 26
-38 21 -43 -4 -5 -23 -35 -40 -66 l-32 -58 24 0 c20 0 31 12 61 70 21 39 41
70 47 70 5 0 9 -31 9 -70 0 -63 2 -70 20 -70 19 0 20 7 20 185 l0 185 -42 0
c-24 -1 -54 -7 -67 -14z"/>
<path d="M507 1003 c-4 -3 -7 -60 -7 -125 0 -110 1 -118 20 -118 16 0 19 8 22
58 3 54 4 57 31 60 27 3 27 3 27 -57 0 -54 2 -61 20 -61 19 0 20 7 20 126 0
114 -2 125 -17 122 -14 -2 -19 -15 -21 -51 -3 -45 -5 -47 -33 -47 -28 0 -29 1
-29 50 0 35 -4 50 -13 50 -8 0 -17 -3 -20 -7z"/>
<path d="M717 941 c-6 -76 -25 -151 -39 -151 -4 0 -8 -18 -8 -40 0 -29 4 -40
15 -40 9 0 15 9 15 25 0 24 3 25 55 25 52 0 55 -1 55 -26 0 -19 5 -25 18 -22
21 4 29 53 12 73 -7 9 -13 56 -13 117 l-2 103 -51 3 -51 3 -6 -70z"/>
<path d="M907 998 c-24 -19 -37 -63 -37 -129 0 -54 3 -64 29 -90 32 -31 45
-34 85 -19 36 13 32 30 -7 30 -39 0 -67 25 -67 61 0 23 3 24 50 21 l50 -4 0
45 c0 75 -55 121 -103 85z"/>
<path d="M1057 1003 c-4 -3 -7 -60 -7 -125 0 -110 1 -118 20 -118 16 0 19 8
22 63 l3 62 30 -60 c22 -44 36 -61 54 -63 23 -4 23 -3 -12 63 l-36 68 27 51
c15 28 28 54 30 59 2 4 -6 7 -18 7 -16 0 -28 -14 -48 -57 l-27 -58 -3 58 c-3
54 -15 71 -35 50z"/>
</g>
</svg>
